<svg xmlns="http://www.w3.org/2000/svg" viewBox="0 0 64 64" fill="none">
  <defs>
    <linearGradient id="brandGrad" x1="0%" y1="0%" x2="100%" y2="100%">
      <stop offset="0%" stop-color="#4F46E5" />
      <stop offset="50%" stop-color="#6366F1" />
      <stop offset="100%" stop-color="#9333EA" />
    </linearGradient>
    <linearGradient id="accentGrad" x1="0%" y1="0%" x2="100%" y2="100%">
      <stop offset="0%" stop-color="#38BDF8" />
      <stop offset="100%" stop-color="#10B981" />
    </linearGradient>
    <filter id="logoShadow" x="-20%" y="-20%" width="140%" height="140%">
      <feDropShadow dx="0" dy="4" stdDeviation="6" flood-color="#4F46E5" flood-opacity="0.45" />
    </filter>
  </defs>
  
  <rect x="4" y="4" width="56" height="56" rx="16" fill="url(#brandGrad)" filter="url(#logoShadow)" />
  <rect x="4.5" y="4.5" width="55" height="55" rx="15.5" stroke="white" stroke-opacity="0.25" stroke-width="1" />
  
  <path d="M32 14L35.5 24.5L46 28L35.5 31.5L32 42L28.5 31.5L18 28L28.5 24.5L32 14Z" fill="white" />
  <circle cx="44" cy="18" r="2.5" fill="#38BDF8" />
  <circle cx="20" cy="40" r="2" fill="#F472B6" />
  <path d="M18 48C24 45 28 41 33 37C38 33 43 33 48 30" stroke="url(#accentGrad)" stroke-width="3" stroke-linecap="round" stroke-linejoin="round" />
  <path d="M42 30H48V36" stroke="url(#accentGrad)" stroke-width="3" stroke-linecap="round" stroke-linejoin="round" />
</svg>
